<svg xmlns="http://www.w3.org/2000/svg" xmlns:v="https://svgstorm.com" viewBox="0 0 180 223" width="180" height="223">
<g fill="None" fill-opacity="0.0" stroke="#000002" stroke-opacity="0.00" stroke-width="0.3"><path d=" M 0.00 119.00  C 1.45 122.03 1.84 126.28 2.00 130.00 C 22.64 197.94 126.41 209.43 166.00 152.00 C 164.23 150.55 161.78 151.43 160.00 150.00 C 134.69 181.31 89.13 189.65 52.93 175.07 C 15.83 161.00 -5.97 119.58 2.00 81.00 C 10.33 143.28 93.73 166.81 142.00 134.00 C 135.47 125.24 123.60 140.12 113.99 138.99 C 61.45 156.90 -11.30 111.75 7.32 52.32 C 17.56 22.05 49.02 2.40 80.00 1.00 C 79.96 1.00 80.00 0.00 80.00 0.00 L 0.00 0.00 L 0.00 119.00 Z"/>
</g>
<g fill="None" fill-opacity="0.0" stroke="#007CC5" stroke-opacity="0.23" stroke-width="0.3"><path d=" M 80.00 1.00  C 86.33 1.00 92.67 1.00 99.00 1.00 C 98.96 1.00 99.00 0.00 99.00 0.00 L 80.00 0.00 C 80.00 0.00 79.96 1.00 80.00 1.00 Z"/>
</g>
<g fill="None" fill-opacity="0.0" stroke="#000002" stroke-opacity="0.00" stroke-width="0.3"><path d=" M 99.00 1.00  C 124.82 2.26 149.74 15.59 164.75 37.25 C 180.26 61.05 175.79 92.35 159.00 114.00 C 160.25 114.30 160.71 115.83 162.00 116.00 C 170.78 106.15 174.75 93.18 177.00 81.00 C 179.73 95.89 177.29 112.44 174.00 127.00 C 174.41 127.83 174.97 128.87 176.00 129.00 C 177.75 126.38 178.18 122.47 178.00 119.00 C 180.27 124.09 178.38 131.16 179.00 137.00 C 179.39 136.79 180.00 137.00 180.00 137.00 L 180.00 0.00 L 99.00 0.00 C 99.00 0.00 98.96 1.00 99.00 1.00 Z"/>
</g>
<g fill="None" fill-opacity="0.0" stroke="#007CC5" stroke-opacity="0.98" stroke-width="0.3"><path d=" M 142.00 134.00  C 149.24 136.27 155.06 145.07 160.00 150.00 C 161.78 151.43 164.23 150.55 166.00 152.00 C 171.89 150.63 178.00 144.59 179.00 141.00 C 179.39 141.21 180.00 141.00 180.00 141.00 L 180.00 137.00 C 180.00 137.00 179.39 136.79 179.00 137.00 C 177.97 137.46 176.26 131.32 176.00 129.00 C 174.97 128.87 174.41 127.83 174.00 127.00 C 168.91 126.16 164.20 120.34 162.00 116.00 C 160.71 115.83 160.25 114.30 159.00 114.00 C 175.79 92.35 180.26 61.05 164.75 37.25 C 149.74 15.59 124.82 2.26 99.00 1.00 C 92.67 1.00 86.33 1.00 80.00 1.00 C 49.02 2.40 17.56 22.05 7.32 52.32 C -11.30 111.75 61.45 156.90 113.99 138.99 C 123.60 140.12 135.47 125.24 142.00 134.00 M 135.00 91.00  C 123.49 85.14 114.39 63.83 99.30 73.30 C 87.55 87.48 108.71 97.68 116.00 108.00 C 89.88 120.58 52.29 112.31 40.69 83.31 C 29.70 51.26 64.98 24.19 95.00 29.00 C 124.78 28.95 152.46 62.96 135.00 91.00 Z"/>
</g>
<g fill="None" fill-opacity="0.0" stroke="#F7FDFD" stroke-opacity="1.00" stroke-width="0.3"><path d=" M 135.00 91.00  C 152.46 62.96 124.78 28.95 95.00 29.00 C 64.98 24.19 29.70 51.26 40.69 83.31 C 52.29 112.31 89.88 120.58 116.00 108.00 C 108.71 97.68 87.55 87.48 99.30 73.30 C 114.39 63.83 123.49 85.14 135.00 91.00 Z"/>
</g>
<g fill="None" fill-opacity="0.0" stroke="#008F3F" stroke-opacity="0.95" stroke-width="0.3"><path d=" M 160.00 150.00  C 155.06 145.07 149.24 136.27 142.00 134.00 C 93.73 166.81 10.33 143.28 2.00 81.00 C -5.97 119.58 15.83 161.00 52.93 175.07 C 89.13 189.65 134.69 181.31 160.00 150.00 Z"/>
</g>
<g fill="None" fill-opacity="0.0" stroke="#008F3F" stroke-opacity="0.84" stroke-width="0.3"><path d=" M 162.00 116.00  C 164.20 120.34 168.91 126.16 174.00 127.00 C 177.29 112.44 179.73 95.89 177.00 81.00 C 174.75 93.18 170.78 106.15 162.00 116.00 Z"/>
</g>
<g fill="None" fill-opacity="0.0" stroke="#008F3F" stroke-opacity="0.67" stroke-width="0.3"><path d=" M 0.00 148.00  C 2.92 143.08 -0.93 134.85 2.00 130.00 C 1.84 126.28 1.45 122.03 0.00 119.00 L 0.00 148.00 Z"/>
</g>
<g fill="None" fill-opacity="0.0" stroke="#008F3F" stroke-opacity="0.64" stroke-width="0.3"><path d=" M 176.00 129.00  C 176.26 131.32 177.97 137.46 179.00 137.00 C 178.38 131.16 180.27 124.09 178.00 119.00 C 178.18 122.47 177.75 126.38 176.00 129.00 Z"/>
</g>
<g fill="None" fill-opacity="0.0" stroke="#008F3F" stroke-opacity="0.96" stroke-width="0.3"><path d=" M 0.00 148.00  L 0.00 153.00 C 6.14 190.35 42.13 220.64 80.00 222.00 C 85.83 222.66 92.99 220.68 98.00 223.00 L 99.00 223.00 C 139.42 219.33 181.33 185.14 179.00 141.00 C 178.00 144.59 171.89 150.63 166.00 152.00 C 126.41 209.43 22.64 197.94 2.00 130.00 C -0.93 134.85 2.92 143.08 0.00 148.00 Z"/>
</g>
<g fill="None" fill-opacity="0.0" stroke="#000002" stroke-opacity="0.00" stroke-width="0.3"><path d=" M 99.00 223.00  L 180.00 223.00 L 180.00 141.00 C 180.00 141.00 179.39 141.21 179.00 141.00 C 181.33 185.14 139.42 219.33 99.00 223.00 Z"/>
</g>
<g fill="None" fill-opacity="0.0" stroke="#000002" stroke-opacity="0.00" stroke-width="0.3"><path d=" M 0.00 223.00  L 80.00 223.00 C 80.00 222.50 80.00 222.00 80.00 222.00 C 42.13 220.64 6.14 190.35 0.00 153.00 L 0.00 223.00 Z"/>
</g>
<g fill="None" fill-opacity="0.0" stroke="#008F3F" stroke-opacity="0.23" stroke-width="0.3"><path d=" M 80.00 223.00  L 98.00 223.00 C 92.99 220.68 85.83 222.66 80.00 222.00 C 80.00 222.00 80.00 222.50 80.00 223.00 Z"/>
</g>
<g fill="#000002" fill-opacity="0.00" stroke="None">
<path d=" M 0.00 119.00  C 1.45 122.03 1.84 126.28 2.00 130.00 C 22.64 197.94 126.41 209.43 166.00 152.00 C 164.23 150.55 161.78 151.43 160.00 150.00 C 134.69 181.31 89.13 189.65 52.93 175.07 C 15.83 161.00 -5.97 119.58 2.00 81.00 C 10.33 143.28 93.73 166.81 142.00 134.00 C 135.47 125.24 123.60 140.12 113.99 138.99 C 61.45 156.90 -11.30 111.75 7.32 52.32 C 17.56 22.05 49.02 2.40 80.00 1.00 C 79.96 1.00 80.00 0.00 80.00 0.00 L 0.00 0.00 L 0.00 119.00 Z"/>
</g>
<g fill="#007CC5" fill-opacity="0.23" stroke="None">
<path d=" M 80.00 1.00  C 86.33 1.00 92.67 1.00 99.00 1.00 C 98.96 1.00 99.00 0.00 99.00 0.00 L 80.00 0.00 C 80.00 0.00 79.96 1.00 80.00 1.00 Z"/>
</g>
<g fill="#000002" fill-opacity="0.00" stroke="None">
<path d=" M 99.00 1.00  C 124.82 2.26 149.74 15.59 164.75 37.25 C 180.26 61.05 175.79 92.35 159.00 114.00 C 160.25 114.30 160.71 115.83 162.00 116.00 C 170.78 106.15 174.75 93.18 177.00 81.00 C 179.73 95.89 177.29 112.44 174.00 127.00 C 174.41 127.83 174.97 128.87 176.00 129.00 C 177.75 126.38 178.18 122.47 178.00 119.00 C 180.27 124.09 178.38 131.16 179.00 137.00 C 179.39 136.79 180.00 137.00 180.00 137.00 L 180.00 0.00 L 99.00 0.00 C 99.00 0.00 98.96 1.00 99.00 1.00 Z"/>
</g>
<g fill="#007CC5" fill-opacity="0.98" stroke="None">
<path d=" M 142.00 134.00  C 149.24 136.27 155.06 145.07 160.00 150.00 C 161.78 151.43 164.23 150.55 166.00 152.00 C 171.89 150.63 178.00 144.59 179.00 141.00 C 179.39 141.21 180.00 141.00 180.00 141.00 L 180.00 137.00 C 180.00 137.00 179.39 136.79 179.00 137.00 C 177.97 137.46 176.26 131.32 176.00 129.00 C 174.97 128.87 174.41 127.83 174.00 127.00 C 168.91 126.16 164.20 120.34 162.00 116.00 C 160.71 115.83 160.25 114.30 159.00 114.00 C 175.79 92.35 180.26 61.05 164.75 37.25 C 149.74 15.59 124.82 2.26 99.00 1.00 C 92.67 1.00 86.33 1.00 80.00 1.00 C 49.02 2.40 17.56 22.05 7.32 52.32 C -11.30 111.75 61.45 156.90 113.99 138.99 C 123.60 140.12 135.47 125.24 142.00 134.00 M 135.00 91.00  C 123.49 85.14 114.39 63.83 99.30 73.30 C 87.55 87.48 108.71 97.68 116.00 108.00 C 89.88 120.58 52.29 112.31 40.69 83.31 C 29.70 51.26 64.98 24.19 95.00 29.00 C 124.78 28.95 152.46 62.96 135.00 91.00 Z"/>
</g>
<g fill="#F7FDFD" fill-opacity="1.00" stroke="None">
<path d=" M 135.00 91.00  C 152.46 62.96 124.78 28.95 95.00 29.00 C 64.98 24.19 29.70 51.26 40.69 83.31 C 52.29 112.31 89.88 120.58 116.00 108.00 C 108.71 97.68 87.55 87.48 99.30 73.30 C 114.39 63.83 123.49 85.14 135.00 91.00 Z"/>
</g>
<g fill="#008F3F" fill-opacity="0.95" stroke="None">
<path d=" M 160.00 150.00  C 155.06 145.07 149.24 136.27 142.00 134.00 C 93.73 166.81 10.33 143.28 2.00 81.00 C -5.97 119.58 15.83 161.00 52.93 175.07 C 89.13 189.65 134.69 181.31 160.00 150.00 Z"/>
</g>
<g fill="#008F3F" fill-opacity="0.84" stroke="None">
<path d=" M 162.00 116.00  C 164.20 120.34 168.91 126.16 174.00 127.00 C 177.29 112.44 179.73 95.89 177.00 81.00 C 174.75 93.18 170.78 106.15 162.00 116.00 Z"/>
</g>
<g fill="#008F3F" fill-opacity="0.67" stroke="None">
<path d=" M 0.00 148.00  C 2.92 143.08 -0.93 134.85 2.00 130.00 C 1.84 126.28 1.45 122.03 0.00 119.00 L 0.00 148.00 Z"/>
</g>
<g fill="#008F3F" fill-opacity="0.64" stroke="None">
<path d=" M 176.00 129.00  C 176.26 131.32 177.97 137.46 179.00 137.00 C 178.38 131.16 180.27 124.09 178.00 119.00 C 178.18 122.47 177.75 126.38 176.00 129.00 Z"/>
</g>
<g fill="#008F3F" fill-opacity="0.96" stroke="None">
<path d=" M 0.00 148.00  L 0.00 153.00 C 6.14 190.35 42.13 220.64 80.00 222.00 C 85.83 222.66 92.99 220.68 98.00 223.00 L 99.00 223.00 C 139.42 219.33 181.33 185.14 179.00 141.00 C 178.00 144.59 171.89 150.63 166.00 152.00 C 126.41 209.43 22.64 197.94 2.00 130.00 C -0.93 134.85 2.92 143.08 0.00 148.00 Z"/>
</g>
<g fill="#000002" fill-opacity="0.00" stroke="None">
<path d=" M 99.00 223.00  L 180.00 223.00 L 180.00 141.00 C 180.00 141.00 179.39 141.21 179.00 141.00 C 181.33 185.14 139.42 219.33 99.00 223.00 Z"/>
</g>
<g fill="#000002" fill-opacity="0.00" stroke="None">
<path d=" M 0.00 223.00  L 80.00 223.00 C 80.00 222.50 80.00 222.00 80.00 222.00 C 42.13 220.64 6.14 190.35 0.00 153.00 L 0.00 223.00 Z"/>
</g>
<g fill="#008F3F" fill-opacity="0.23" stroke="None">
<path d=" M 80.00 223.00  L 98.00 223.00 C 92.99 220.68 85.83 222.66 80.00 222.00 C 80.00 222.00 80.00 222.50 80.00 223.00 Z"/>
</g>
</svg>