<?xml version="1.0" encoding="utf-8"?>
<!-- Generator: Adobe Illustrator 27.3.1, SVG Export Plug-In . SVG Version: 6.00 Build 0)  -->
<svg version="1.1" id="Layer_1" xmlns="http://www.w3.org/2000/svg" xmlns:xlink="http://www.w3.org/1999/xlink" x="0px" y="0px"
	 viewBox="0 0 1024 1024" style="enable-background:new 0 0 1024 1024;" xml:space="preserve">
<style type="text/css">
	.st0{display:none;fill:#FFFFFF;}
	.st1{fill:#057FC6;}
	.st2{fill:#0D9549;}
</style>
<rect class="st0" width="1024" height="1024"/>
<g>
	<path class="st1" d="M506.24,15.94c-209.2,0-378.79,131.23-378.79,306c0,174.76,169.59,326.88,378.79,326.88
		s378.8-152.12,378.8-326.88C885.04,147.17,715.44,15.94,506.24,15.94z M506.24,518.76c-127.53,0-230.92-91.16-230.92-195.9
		s103.39-183.39,230.92-183.39c127.54,0,230.93,78.65,230.93,183.39S633.78,518.76,506.24,518.76z"/>
	<path class="st2" d="M800.48,681.75c3.74,3.62,7.83,6.77,12.19,9.41c-57.49,71.57-151.97,128.63-306.43,136.16
		C57.91,805.47,114.92,366.31,114.92,366.31c62.12,317.53,391.32,306.97,391.32,306.97s116.34,3.73,223.74-59.95L800.48,681.75z"/>
	<path class="st2" d="M877.43,566.89l-45.97-44.61c29.75-40.3,53.46-91.34,66.1-155.97C897.56,366.31,910.03,462.38,877.43,566.89z"
		/>
	<path class="st2" d="M896.64,680.3c0.12-0.12,0.23-0.24,0.34-0.36c-21.2,128.23-99.19,303.31-364.16,326.93
		c-17.68,1.58-35.48,1.58-53.16,0c-424.46-37.84-369.1-464.32-369.1-464.32c62.81,321.08,395.68,310.4,395.68,310.4
		s211.59,6.79,329.21-153.18c4.04,0.74,8.18,1.12,12.38,1.12C866.42,700.89,883.76,693.58,896.64,680.3z"/>
	<path class="st2" d="M904.26,594.97c-2.59-3.84-5.61-7.48-9.06-10.83l-2.66-2.58c3.58-12.43,6.72-25.42,9.38-39.01
		C901.92,542.55,904.55,562.84,904.26,594.97z"/>
	<path class="st1" d="M885.16,669.16L885.16,669.16c-19.92,20.53-53.01,21.02-73.54,1.1L549.46,415.84
		c-20.53-19.92-21.02-53.01-1.1-73.54l0,0c19.92-20.53,53.01-21.02,73.54-1.1l262.16,254.42
		C904.58,615.54,905.08,648.63,885.16,669.16z"/>
</g>
</svg>
