<?xml version="1.0" encoding="UTF-8" standalone="no"?>
<svg
   viewBox="0 0 1000 1000"
   width="1000"
   height="1000"
   version="1.1"
   id="svg26"
   sodipodi:docname="qStudio-1024x1024.svg"
   inkscape:version="1.3.2 (091e20e, 2023-11-25)"
   xmlns:inkscape="http://www.inkscape.org/namespaces/inkscape"
   xmlns:sodipodi="http://sodipodi.sourceforge.net/DTD/sodipodi-0.dtd"
   xmlns="http://www.w3.org/2000/svg"
   xmlns:svg="http://www.w3.org/2000/svg">
  <defs
     id="defs26" />
  <sodipodi:namedview
     id="namedview26"
     pagecolor="#ffffff"
     bordercolor="#666666"
     borderopacity="1.0"
     inkscape:showpageshadow="2"
     inkscape:pageopacity="0.0"
     inkscape:pagecheckerboard="0"
     inkscape:deskcolor="#d1d1d1"
     inkscape:zoom="0.52914798"
     inkscape:cx="449.77966"
     inkscape:cy="409.1483"
     inkscape:window-width="1088"
     inkscape:window-height="740"
     inkscape:window-x="0"
     inkscape:window-y="25"
     inkscape:window-maximized="0"
     inkscape:current-layer="svg26" />
  <g
     id="g27"
     transform="matrix(3.7883773,0,0,3.4541109,172.36808,77.875109)">
    <g
       fill="None"
       fill-opacity="0"
       stroke="#000002"
       stroke-opacity="0"
       stroke-width="0.3"
       id="g1">
      <path
         d="m 0,119 c 1.45,3.03 1.84,7.28 2,11 20.64,67.94 124.41,79.43 164,22 -1.77,-1.45 -4.22,-0.57 -6,-2 C 134.69,181.31 89.13,189.65 52.93,175.07 15.83,161 -5.97,119.58 2,81 c 8.33,62.28 91.73,85.81 140,53 -6.53,-8.76 -18.4,6.12 -28.01,4.99 C 61.45,156.9 -11.3,111.75 7.32,52.32 17.56,22.05 49.02,2.4 80,1 79.96,1 80,0 80,0 H 0 Z"
         id="path1" />
    </g>
    <g
       fill="None"
       fill-opacity="0"
       stroke="#007cc5"
       stroke-opacity="0.23"
       stroke-width="0.3"
       id="g2">
      <path
         d="m 80,1 c 6.33,0 12.67,0 19,0 -0.04,0 0,-1 0,-1 H 80 c 0,0 -0.04,1 0,1 z"
         id="path2" />
    </g>
    <g
       fill="None"
       fill-opacity="0"
       stroke="#000002"
       stroke-opacity="0"
       stroke-width="0.3"
       id="g3">
      <path
         d="m 99,1 c 25.82,1.26 50.74,14.59 65.75,36.25 15.51,23.8 11.04,55.1 -5.75,76.75 1.25,0.3 1.71,1.83 3,2 8.78,-9.85 12.75,-22.82 15,-35 2.73,14.89 0.29,31.44 -3,46 0.41,0.83 0.97,1.87 2,2 1.75,-2.62 2.18,-6.53 2,-10 2.27,5.09 0.38,12.16 1,18 0.39,-0.21 1,0 1,0 V 0 H 99 c 0,0 -0.04,1 0,1 z"
         id="path3" />
    </g>
    <g
       fill="None"
       fill-opacity="0"
       stroke="#007cc5"
       stroke-opacity="0.98"
       stroke-width="0.3"
       id="g4">
      <path
         d="m 142,134 c 7.24,2.27 13.06,11.07 18,16 1.78,1.43 4.23,0.55 6,2 5.89,-1.37 12,-7.41 13,-11 0.39,0.21 1,0 1,0 v -4 c 0,0 -0.61,-0.21 -1,0 -1.03,0.46 -2.74,-5.68 -3,-8 -1.03,-0.13 -1.59,-1.17 -2,-2 -5.09,-0.84 -9.8,-6.66 -12,-11 -1.29,-0.17 -1.75,-1.7 -3,-2 16.79,-21.65 21.26,-52.95 5.75,-76.75 C 149.74,15.59 124.82,2.26 99,1 92.67,1 86.33,1 80,1 49.02,2.4 17.56,22.05 7.32,52.32 -11.3,111.75 61.45,156.9 113.99,138.99 123.6,140.12 135.47,125.24 142,134 M 135,91 C 123.49,85.14 114.39,63.83 99.3,73.3 87.55,87.48 108.71,97.68 116,108 89.88,120.58 52.29,112.31 40.69,83.31 29.7,51.26 64.98,24.19 95,29 c 29.78,-0.05 57.46,33.96 40,62 z"
         id="path4" />
    </g>
    <g
       fill="None"
       fill-opacity="0"
       stroke="#f7fdfd"
       stroke-opacity="1"
       stroke-width="0.3"
       id="g5">
      <path
         d="M 135,91 C 152.46,62.96 124.78,28.95 95,29 64.98,24.19 29.7,51.26 40.69,83.31 52.29,112.31 89.88,120.58 116,108 108.71,97.68 87.55,87.48 99.3,73.3 114.39,63.83 123.49,85.14 135,91 Z"
         id="path5" />
    </g>
    <g
       fill="None"
       fill-opacity="0"
       stroke="#008f3f"
       stroke-opacity="0.95"
       stroke-width="0.3"
       id="g6">
      <path
         d="M 160,150 C 155.06,145.07 149.24,136.27 142,134 93.73,166.81 10.33,143.28 2,81 -5.97,119.58 15.83,161 52.93,175.07 89.13,189.65 134.69,181.31 160,150 Z"
         id="path6" />
    </g>
    <g
       fill="None"
       fill-opacity="0"
       stroke="#008f3f"
       stroke-opacity="0.84"
       stroke-width="0.3"
       id="g7">
      <path
         d="m 162,116 c 2.2,4.34 6.91,10.16 12,11 3.29,-14.56 5.73,-31.11 3,-46 -2.25,12.18 -6.22,25.15 -15,35 z"
         id="path7" />
    </g>
    <g
       fill="None"
       fill-opacity="0"
       stroke="#008f3f"
       stroke-opacity="0.67"
       stroke-width="0.3"
       id="g8">
      <path
         d="M 0,148 C 2.92,143.08 -0.93,134.85 2,130 1.84,126.28 1.45,122.03 0,119 Z"
         id="path8" />
    </g>
    <g
       fill="None"
       fill-opacity="0"
       stroke="#008f3f"
       stroke-opacity="0.64"
       stroke-width="0.3"
       id="g9">
      <path
         d="m 176,129 c 0.26,2.32 1.97,8.46 3,8 -0.62,-5.84 1.27,-12.91 -1,-18 0.18,3.47 -0.25,7.38 -2,10 z"
         id="path9" />
    </g>
    <g
       fill="None"
       fill-opacity="0"
       stroke="#008f3f"
       stroke-opacity="0.96"
       stroke-width="0.3"
       id="g10">
      <path
         d="m 0,148 v 5 c 6.14,37.35 42.13,67.64 80,69 5.83,0.66 12.99,-1.32 18,1 h 1 c 40.42,-3.67 82.33,-37.86 80,-82 -1,3.59 -7.11,9.63 -13,11 -39.59,57.43 -143.36,45.94 -164,-22 -2.93,4.85 0.92,13.08 -2,18 z"
         id="path10" />
    </g>
    <g
       fill="None"
       fill-opacity="0"
       stroke="#000002"
       stroke-opacity="0"
       stroke-width="0.3"
       id="g11">
      <path
         d="m 99,223 h 81 v -82 c 0,0 -0.61,0.21 -1,0 2.33,44.14 -39.58,78.33 -80,82 z"
         id="path11" />
    </g>
    <g
       fill="None"
       fill-opacity="0"
       stroke="#000002"
       stroke-opacity="0"
       stroke-width="0.3"
       id="g12">
      <path
         d="m 0,223 h 80 c 0,-0.5 0,-1 0,-1 C 42.13,220.64 6.14,190.35 0,153 Z"
         id="path12" />
    </g>
    <g
       fill="None"
       fill-opacity="0"
       stroke="#008f3f"
       stroke-opacity="0.23"
       stroke-width="0.3"
       id="g13">
      <path
         d="m 80,223 h 18 c -5.01,-2.32 -12.17,-0.34 -18,-1 0,0 0,0.5 0,1 z"
         id="path13" />
    </g>
    <g
       fill="#000002"
       fill-opacity="0"
       stroke="None"
       id="g14">
      <path
         d="m 0,119 c 1.45,3.03 1.84,7.28 2,11 20.64,67.94 124.41,79.43 164,22 -1.77,-1.45 -4.22,-0.57 -6,-2 C 134.69,181.31 89.13,189.65 52.93,175.07 15.83,161 -5.97,119.58 2,81 c 8.33,62.28 91.73,85.81 140,53 -6.53,-8.76 -18.4,6.12 -28.01,4.99 C 61.45,156.9 -11.3,111.75 7.32,52.32 17.56,22.05 49.02,2.4 80,1 79.96,1 80,0 80,0 H 0 Z"
         id="path14" />
    </g>
    <g
       fill="#007cc5"
       fill-opacity="0.23"
       stroke="None"
       id="g15">
      <path
         d="m 80,1 c 6.33,0 12.67,0 19,0 -0.04,0 0,-1 0,-1 H 80 c 0,0 -0.04,1 0,1 z"
         id="path15" />
    </g>
    <g
       fill="#000002"
       fill-opacity="0"
       stroke="None"
       id="g16">
      <path
         d="m 99,1 c 25.82,1.26 50.74,14.59 65.75,36.25 15.51,23.8 11.04,55.1 -5.75,76.75 1.25,0.3 1.71,1.83 3,2 8.78,-9.85 12.75,-22.82 15,-35 2.73,14.89 0.29,31.44 -3,46 0.41,0.83 0.97,1.87 2,2 1.75,-2.62 2.18,-6.53 2,-10 2.27,5.09 0.38,12.16 1,18 0.39,-0.21 1,0 1,0 V 0 H 99 c 0,0 -0.04,1 0,1 z"
         id="path16" />
    </g>
    <g
       fill="#007cc5"
       fill-opacity="0.98"
       stroke="None"
       id="g17">
      <path
         d="m 142,134 c 7.24,2.27 13.06,11.07 18,16 1.78,1.43 4.23,0.55 6,2 5.89,-1.37 12,-7.41 13,-11 0.39,0.21 1,0 1,0 v -4 c 0,0 -0.61,-0.21 -1,0 -1.03,0.46 -2.74,-5.68 -3,-8 -1.03,-0.13 -1.59,-1.17 -2,-2 -5.09,-0.84 -9.8,-6.66 -12,-11 -1.29,-0.17 -1.75,-1.7 -3,-2 16.79,-21.65 21.26,-52.95 5.75,-76.75 C 149.74,15.59 124.82,2.26 99,1 92.67,1 86.33,1 80,1 49.02,2.4 17.56,22.05 7.32,52.32 -11.3,111.75 61.45,156.9 113.99,138.99 123.6,140.12 135.47,125.24 142,134 M 135,91 C 123.49,85.14 114.39,63.83 99.3,73.3 87.55,87.48 108.71,97.68 116,108 89.88,120.58 52.29,112.31 40.69,83.31 29.7,51.26 64.98,24.19 95,29 c 29.78,-0.05 57.46,33.96 40,62 z"
         id="path17" />
    </g>
    <g
       fill="#f7fdfd"
       fill-opacity="1"
       stroke="None"
       id="g18">
      <path
         d="M 135,91 C 152.46,62.96 124.78,28.95 95,29 64.98,24.19 29.7,51.26 40.69,83.31 52.29,112.31 89.88,120.58 116,108 108.71,97.68 87.55,87.48 99.3,73.3 114.39,63.83 123.49,85.14 135,91 Z"
         id="path18" />
    </g>
    <g
       fill="#008f3f"
       fill-opacity="0.95"
       stroke="None"
       id="g19">
      <path
         d="M 160,150 C 155.06,145.07 149.24,136.27 142,134 93.73,166.81 10.33,143.28 2,81 -5.97,119.58 15.83,161 52.93,175.07 89.13,189.65 134.69,181.31 160,150 Z"
         id="path19" />
    </g>
    <g
       fill="#008f3f"
       fill-opacity="0.84"
       stroke="None"
       id="g20">
      <path
         d="m 162,116 c 2.2,4.34 6.91,10.16 12,11 3.29,-14.56 5.73,-31.11 3,-46 -2.25,12.18 -6.22,25.15 -15,35 z"
         id="path20" />
    </g>
    <g
       fill="#008f3f"
       fill-opacity="0.67"
       stroke="None"
       id="g21">
      <path
         d="M 0,148 C 2.92,143.08 -0.93,134.85 2,130 1.84,126.28 1.45,122.03 0,119 Z"
         id="path21" />
    </g>
    <g
       fill="#008f3f"
       fill-opacity="0.64"
       stroke="None"
       id="g22">
      <path
         d="m 176,129 c 0.26,2.32 1.97,8.46 3,8 -0.62,-5.84 1.27,-12.91 -1,-18 0.18,3.47 -0.25,7.38 -2,10 z"
         id="path22" />
    </g>
    <g
       fill="#008f3f"
       fill-opacity="0.96"
       stroke="None"
       id="g23">
      <path
         d="m 0,148 v 5 c 6.14,37.35 42.13,67.64 80,69 5.83,0.66 12.99,-1.32 18,1 h 1 c 40.42,-3.67 82.33,-37.86 80,-82 -1,3.59 -7.11,9.63 -13,11 -39.59,57.43 -143.36,45.94 -164,-22 -2.93,4.85 0.92,13.08 -2,18 z"
         id="path23" />
    </g>
    <g
       fill="#000002"
       fill-opacity="0"
       stroke="None"
       id="g24">
      <path
         d="m 99,223 h 81 v -82 c 0,0 -0.61,0.21 -1,0 2.33,44.14 -39.58,78.33 -80,82 z"
         id="path24" />
    </g>
    <g
       fill="#000002"
       fill-opacity="0"
       stroke="None"
       id="g25">
      <path
         d="m 0,223 h 80 c 0,-0.5 0,-1 0,-1 C 42.13,220.64 6.14,190.35 0,153 Z"
         id="path25" />
    </g>
    <g
       fill="#008f3f"
       fill-opacity="0.23"
       stroke="None"
       id="g26">
      <path
         d="m 80,223 h 18 c -5.01,-2.32 -12.17,-0.34 -18,-1 0,0 0,0.5 0,1 z"
         id="path26" />
    </g>
  </g>
</svg>
